PathFileType	4	(X/Y/Z)	Patient4_TMGait_0pt3_03_right_04.trc.trc
DataRate	CameraRate	NumFrames	NumMarkers	Units	OrigDataRate	OrigDataStartFrame	OrigNumFrames
52.434456928839	52.434456928839	5	33	mm	52.434456928839	124	       141
Frame#	Time	Sacral			L.Shoulder			Chest			R.Shoulder			Neck			R.ASIS			L.ASIS			R.Thigh.Superior			R.Thigh.Lateral			R.Thigh.Inferior			R.Patella			L.Thigh.Superior			L.Thigh.Lateral			L.Thigh.Inferior			L.Patella			L.Shank.Superior			L.Shank.Lateral			L.Shank.Inferior			R.Shank.Superior			R.Shank.Lateral			R.Shank.Inferior			R.Heel			R.Midfoot.Superior			R.Midfoot.Lateral			R.Toe			L.Heel			L.Midfoot.Lateral			L.Midfoot.Superior			L.Toe			L.Elbow			L.Wrist			R.Elbow			R.Wrist			
		X1	Y1	Z1	X2	Y2	Z2	X3	Y3	Z3	X4	Y4	Z4	X5	Y5	Z5	X6	Y6	Z6	X7	Y7	Z7	X8	Y8	Z8	X9	Y9	Z9	X10	Y10	Z10	X11	Y11	Z11	X12	Y12	Z12	X13	Y13	Z13	X14	Y14	Z14	X15	Y15	Z15	X16	Y16	Z16	X17	Y17	Z17	X18	Y18	Z18	X19	Y19	Z19	X20	Y20	Z20	X21	Y21	Z21	X22	Y22	Z22	X23	Y23	Z23	X24	Y24	Z24	X25	Y25	Z25	X26	Y26	Z26	X27	Y27	Z27	X28	Y28	Z28	X29	Y29	Z29	X30	Y30	Z30	X31	Y31	Z31	X32	Y32	Z32	X33	Y33	Z33	

124	9.785785714286	744.133054190289	1011.856096859111	428.783684368532	995.211200426146	1434.074212150307	308.466412421650	1046.244217250897	1354.012111390668	486.825650318972	924.801169271806	1431.299653653932	635.212517792401	930.991079872579	1489.457859313350	459.627869505394	940.952202022862	936.281900305438	593.490523450004	984.959633315288	953.847156998971	322.528081123250	1008.429622559665	753.155942269934	570.291204257502	943.286214394328	636.756475485588	631.103921532602	1034.332778099124	593.600604956679	557.765202041956	1055.418890527247	508.928855682917	573.737982047614	988.828172966873	726.982986707595	356.195673969548	890.342219075300	624.209866424661	281.319470228621	946.512052541697	536.611555799471	356.830631295526	933.206599192861	468.718081711437	365.640672741304	897.803556571122	401.996565797082	354.226398008387	799.390269896891	299.911419919463	294.048767438320	822.577439008490	185.003668929724	372.063424787820	1031.941503596745	418.635872884397	583.573989763716	965.715166378404	311.913478671043	649.197152489065	1023.935834197573	217.539276612079	597.076710647309	907.822424464865	40.311378160015	575.084453587159	1078.178695024152	103.753263316430	607.809971797058	995.295709615878	34.041320458452	645.479274026080	1201.116783996687	58.889676314536	627.927979755858	673.989198341197	38.758015224719	402.694729203685	752.760944388772	35.435917043864	327.119443925269	835.818761429617	95.103195195760	360.119864629468	964.864733465280	40.144555354812	338.240078379094	1097.917014836644	1124.922417983290	151.723786788925	1346.450209954701	1068.411011044441	201.275306809304	747.641160594501	1122.261073636504	694.345758676240	712.072717490251	863.343296455753	702.100138827471	
125	9.804857142857	745.356594853639	1010.925700053357	432.735026292066	996.321431683578	1433.105609572704	313.370463069420	1047.173633297364	1353.103684568389	491.801858234260	925.728965810388	1430.667204801453	640.051296827724	931.914690958313	1488.489547685588	464.374496458245	942.012690154988	934.885517309721	597.606004254227	986.295865539163	953.063316763898	326.739630061803	1009.057086596128	751.342592384864	573.969459814783	942.299334145374	634.614583372629	632.919605371397	1033.972727086187	591.909133464445	560.114508812787	1053.542986433873	507.194956153785	574.385792337655	988.519264011629	725.587139327285	359.258419797422	888.776184757580	623.964445230775	283.755535255721	943.903797122175	535.536716704365	358.834465624335	929.792168081722	467.774654049359	367.394227904275	894.069543058844	401.463054089017	355.655731169193	794.744766585452	300.303955972199	295.058680617276	817.430900397673	184.850286800158	372.540902415918	1030.965516371929	416.681684036885	583.998363045690	965.765842029281	309.607652224683	649.832453455290	1023.347796024915	215.737953094938	596.466002365177	907.061508567545	39.651878719138	575.275973352921	1077.639835739958	102.725823664452	606.382105634324	994.670637445486	34.150990749212	645.316864563688	1200.211742761741	57.348916520680	626.111627167511	668.245243424436	38.827456754253	402.652167448811	747.061421044468	35.432924396272	327.156803144716	830.163700687511	95.136693811168	360.164628769169	959.177857301867	40.063723026247	338.257818271497	1102.737438806120	1125.626667891646	156.777701274699	1353.132603318747	1078.805160245506	206.147844964335	748.023277333787	1122.047962074765	697.139881919656	710.415093003308	863.219432067792	703.445248410603	
126	9.823928571429	746.743950263352	1010.107618655598	437.017605110132	997.340601300263	1432.364424160185	318.432962185474	1048.172216512144	1352.389569414854	496.897693477361	926.768500320197	1430.097513942030	645.108458218466	932.816926830581	1487.684705318445	469.337498273042	943.464279744981	933.769052656649	601.869873233978	987.727812366441	952.459876125413	331.060778201557	1010.404997612676	750.021188358054	577.365891641046	942.416680892633	632.921518695516	634.638569434103	1034.583614440792	590.630989027922	562.223658709544	1052.679496517877	505.474769878249	574.998070273181	988.509684304045	724.340820641080	362.290219270150	887.461378286381	623.810973028524	286.401787907681	941.798546213405	534.586847124276	360.912601596013	926.993882438813	466.872364315369	369.231668506399	890.766587463475	400.988734672363	357.197894822584	790.327049263927	300.934739010028	296.231387152546	812.472743095422	184.820818636712	373.022415790352	1030.240939218950	414.826147904405	584.335231641134	965.202167152103	307.985087306688	650.219054976965	1021.320968730790	214.212200324722	595.635213126603	903.577308542679	39.955506608563	574.933050018459	1074.531986715612	101.802595809454	604.874523567166	991.070611536589	34.823734670475	644.864128019536	1196.507947625953	55.368793491477	624.667696837879	662.543886978519	39.137625692271	402.599228761444	741.418378789782	35.550126631312	327.209053965315	824.615623666061	95.225129012967	360.188932076566	953.535262560258	39.930660864018	338.258979880384	1106.956612485855	1126.288360880260	162.042981491713	1358.787902828718	1088.052036990198	210.958125020531	749.361139160335	1121.377994980492	700.625030492659	709.925040087446	862.670518864890	705.880760770906	
127	9.843000000000	748.274893528719	1009.498656657423	441.575056484149	998.308238117966	1431.935249032964	323.607226711345	1049.238432906800	1351.940503400307	502.071728445636	927.894247875627	1429.671456286314	650.316206195347	933.696259623517	1487.121637274766	474.464898782135	945.251103562364	933.011230062861	606.244673727328	989.229484055202	952.103258789474	335.458730596634	1012.256644413510	749.148952500192	580.495852671787	943.409138939088	631.716544677942	636.398341278105	1035.818073781999	589.718642634872	564.146614995827	1052.567610831579	503.864519379587	575.685952262640	988.703718758899	723.311211210748	365.299673733067	886.340539512480	623.820902550227	289.212484525728	940.129110781382	533.822278238634	363.029271686663	924.757619666685	466.067407635955	371.090856902845	887.849059099103	400.641792260121	358.801509532468	786.118305694033	301.856749410004	297.538247361741	807.705644267670	184.977643304494	373.479273456567	1029.680796881879	413.148390763425	584.704932055996	964.186955393614	306.907269234326	650.542803514222	1018.276686422930	212.926954319617	594.772456839702	898.194490299443	40.789664904467	574.304543334034	1069.604927464265	100.955006732351	603.468876664569	985.433028024548	35.736262919947	644.296201069869	1190.942081670009	53.198537389039	623.647910418612	656.899061367606	39.789068017890	402.532845629964	735.836584361585	35.844508123992	327.270462704412	819.201835838382	95.388125112011	360.178990229049	947.933510655909	39.741188709160	338.242641885570	1110.546447625256	1126.971300220532	167.446568354006	1363.467938571691	1096.105142745731	215.712985262891	751.405301035363	1120.463576471814	704.781430915322	710.467841195907	861.891127181998	709.467664694376	
128	9.862071428571	749.918020197647	1009.154422711558	446.363189843435	999.231563316409	1431.860896472402	328.838263388151	1050.356277337288	1351.798922117498	507.271836304052	929.081169649912	1429.446215846824	655.605734831979	934.541375686887	1486.847066731359	479.697828757592	947.304211178754	932.639152855860	610.693700001900	990.765083125050	952.029033021391	339.906961543668	1014.374947703737	748.634099081041	583.431100952343	944.975579727293	630.969900404114	638.322781192205	1037.308806567887	589.086862649814	565.965876058645	1052.884228080940	502.416501447019	576.541988323736	989.031888319246	722.554485593389	368.311314571943	885.405510431361	624.039245331616	292.146439657572	938.878205103372	533.285583223061	365.162245504874	923.075907384515	465.394719766477	372.918253035456	885.314724761638	400.467692378577	360.422547491517	782.137495472198	303.111416139682	298.952627749047	803.148196568633	185.373676523720	373.888020662844	1029.146256561035	411.690071032069	585.204800135311	962.819606173195	306.226314620837	650.942498135178	1014.571635490315	211.850657140581	594.024224932926	891.666318904030	41.820211887223	573.594262161226	1063.543690803575	100.176104005386	602.288526468443	978.601176557557	36.653745289738	643.743588460317	1184.324028814849	51.046681367541	623.041000577478	651.327987039002	40.893043994263	402.453883583470	730.318318917907	36.382502721036	327.335478737234	813.950251257056	95.646597647348	360.122667317730	942.362071555803	39.495230408102	338.209615685945	1113.493569538901	1127.714344961943	172.913125226399	1367.226014279567	1102.904761453833	220.416650394425	753.923367989369	1119.500076490940	709.575632638537	711.920532439625	861.057269595857	714.234913892592	
